# xmcd
#
# Track frame offsets:
# 182
# 12492
# 24065
# 34747
# 50852
# 64120
# 83900
# 93397
# 105812
# 126982
# 142855
# 156975
# 175175
# 195467
# 211117
# 228545
# 240167
# 254100
# 270075
# 296790
#
# Disc length: 4163 seconds
#
#
# Revision: 5
# Processed by: cddbd v1.5.2PL0 Copyright (c) Steve Scherf et al.
# Submitted via: FreeRIP 2.951 
#
DISCID=0b104114
DTITLE=Willie Nelson - Willie Nelson's Greatest Hits (& Some That Will Be)
DYEAR=1981
DGENRE=Country
TTITLE0=Railroad Lady
TTITLE1=Heartaches Of A Fool
TTITLE2=Blue Eyes Crying In The Rain
TTITLE3=Whiskey River
TTITLE4=Good Hearted Woman
TTITLE5=Georgia On My Mind
TTITLE6=If You've Got The Money I've Got The Time
TTITLE7=Look What Thoughts Will Do
TTITLE8=Uncloudy Day
TTITLE9=Mammas Don't Let Your Babies Grow Up To Be Cowboys
TTITLE10=My Heroes Have Always Been Cowboys
TTITLE11=Help Me Make It Through The Night
TTITLE12=Angel Flying Too Close To The Ground
TTITLE13=I'd Have To Be Crazy
TTITLE14=Faded Love
TTITLE15=On The Road Again
TTITLE16=Heartbreak Hotel
TTITLE17=If You Could Touch Her At All
TTITLE18=Till I Gain Control Again
TTITLE19=Stay A Little Longer
EXTD=
EXTT0=
EXTT1=
EXTT2=
EXTT3=
EXTT4=
EXTT5=
EXTT6=
EXTT7=
EXTT8=
EXTT9=
EXTT10=
EXTT11=
EXTT12=
EXTT13=
EXTT14=
EXTT15=
EXTT16=
EXTT17=
EXTT18=
EXTT19=
PLAYORDER=
